# xmcd
#
# Track frame offsets: 
#        150
#        12457
#        36955
#        55606
#        71824
#        89713
#        105678
#        120060
#        139265
#        152707
#        235056
#
# Disc length: 3393 seconds
#
# Revision: 0
# Processed by: cddbd v1.5.2PL0 Copyright (c) Steve Scherf et al.
# Submitted via: ExactAudioCopyFreeDBPlugin 1.0
#
DISCID=8f0d3f0b
DTITLE=A Life, A Song, A Cigarette - All That Glitters Is Not Gold
DYEAR=2016
DGENRE=Alt. Country
TTITLE0=Atging
TTITLE1=Snow
TTITLE2=Blindhearted
TTITLE3=Simmering (Part II)
TTITLE4=Storybook
TTITLE5=Poisened by the News
TTITLE6=Say
TTITLE7=Take Me Back
TTITLE8=If Love
TTITLE9=To Axion Esti
TTITLE10=Intercity 69
EXTD=
EXTT0=
EXTT1=
EXTT2=
EXTT3=
EXTT4=
EXTT5=
EXTT6=
EXTT7=
EXTT8=
EXTT9=
EXTT10=
PLAYORDER=
